solid LoRaReceiverBoxv2
facet normal -6.371644384765657e-17 -8.444776721153087e-46 1.0
  outer loop
    vertex 48.500000000000014 17.499999999999986 11.500000000000012
    vertex 10.500000000000014 21.49999999999998 11.500000000000016
    vertex 10.500000000000014 17.499999999999986 11.500000000000016
  endloop
endfacet
facet normal -6.371644384765657e-17 -8.444776721153087e-46 1.0
  outer loop
    vertex 10.500000000000014 21.49999999999998 11.500000000000016
    vertex 48.500000000000014 17.499999999999986 11.500000000000012
    vertex 48.500000000000014 21.49999999999998 11.500000000000012
  endloop
endfacet
facet normal 0.0 -1.0 0.0
  outer loop
    vertex 48.500000000000014 17.499999999999986 11.500000000000012
    vertex 10.500000000000014 17.499999999999986 9.500000000000005
    vertex 48.500000000000014 17.499999999999986 9.500000000000005
  endloop
endfacet
facet normal 0.0 -1.0 0.0
  outer loop
    vertex 10.500000000000014 17.499999999999986 9.500000000000005
    vertex 48.500000000000014 17.499999999999986 11.500000000000012
    vertex 10.500000000000014 17.499999999999986 11.500000000000016
  endloop
endfacet
facet normal -0.0 -0.0 -1.0
  outer loop
    vertex 48.500000000000014 21.49999999999998 9.500000000000005
    vertex 10.500000000000014 17.499999999999986 9.500000000000005
    vertex 10.500000000000014 21.49999999999998 9.500000000000005
  endloop
endfacet
facet normal -0.0 -0.0 -1.0
  outer loop
    vertex 10.500000000000014 17.499999999999986 9.500000000000005
    vertex 48.500000000000014 21.49999999999998 9.500000000000005
    vertex 48.500000000000014 17.499999999999986 9.500000000000005
  endloop
endfacet
facet normal -1.0 0.0 0.0
  outer loop
    vertex 10.500000000000014 21.49999999999998 11.500000000000016
    vertex 10.500000000000014 17.499999999999986 9.500000000000005
    vertex 10.500000000000014 17.499999999999986 11.500000000000016
  endloop
endfacet
facet normal -1.0 0.0 0.0
  outer loop
    vertex 10.500000000000014 17.499999999999986 9.500000000000005
    vertex 10.500000000000014 21.49999999999998 11.500000000000016
    vertex 10.500000000000014 21.49999999999998 9.500000000000005
  endloop
endfacet
facet normal 0.0 1.0 0.0
  outer loop
    vertex 10.500000000000014 21.49999999999998 11.500000000000016
    vertex 48.500000000000014 21.49999999999998 9.500000000000005
    vertex 10.500000000000014 21.49999999999998 9.500000000000005
  endloop
endfacet
facet normal 0.0 1.0 0.0
  outer loop
    vertex 48.500000000000014 21.49999999999998 9.500000000000005
    vertex 10.500000000000014 21.49999999999998 11.500000000000016
    vertex 48.500000000000014 21.49999999999998 11.500000000000012
  endloop
endfacet
facet normal 1.0 0.0 0.0
  outer loop
    vertex 48.500000000000014 21.49999999999998 9.500000000000005
    vertex 48.500000000000014 17.499999999999986 11.500000000000012
    vertex 48.500000000000014 17.499999999999986 9.500000000000005
  endloop
endfacet
facet normal 1.0 0.0 0.0
  outer loop
    vertex 48.500000000000014 17.499999999999986 11.500000000000012
    vertex 48.500000000000014 21.49999999999998 9.500000000000005
    vertex 48.500000000000014 21.49999999999998 11.500000000000012
  endloop
endfacet
facet normal 0.0 -1.0 0.0
  outer loop
    vertex 48.500000000000014 1.5000000000000029 11.500000000000005
    vertex 10.500000000000014 1.5000000000000029 9.500000000000005
    vertex 48.500000000000014 1.5000000000000029 9.500000000000005
  endloop
endfacet
facet normal 0.0 -1.0 0.0
  outer loop
    vertex 10.500000000000014 1.5000000000000029 9.500000000000005
    vertex 48.500000000000014 1.5000000000000029 11.500000000000005
    vertex 10.500000000000014 1.5000000000000029 11.500000000000004
  endloop
endfacet
facet normal -5.857802095671653e-17 -7.763746340414934e-46 1.0
  outer loop
    vertex 48.500000000000014 1.5000000000000029 11.500000000000005
    vertex 10.500000000000014 5.499999999999996 11.500000000000004
    vertex 10.500000000000014 1.5000000000000029 11.500000000000004
  endloop
endfacet
facet normal -5.857802095671653e-17 -7.763746340414934e-46 1.0
  outer loop
    vertex 10.500000000000014 5.499999999999996 11.500000000000004
    vertex 48.500000000000014 1.5000000000000029 11.500000000000005
    vertex 48.500000000000014 5.499999999999996 11.500000000000005
  endloop
endfacet
facet normal -0.0 -0.0 -1.0
  outer loop
    vertex 48.500000000000014 5.499999999999996 9.500000000000005
    vertex 10.500000000000014 1.5000000000000029 9.500000000000005
    vertex 10.500000000000014 5.499999999999996 9.500000000000005
  endloop
endfacet
facet normal -0.0 -0.0 -1.0
  outer loop
    vertex 10.500000000000014 1.5000000000000029 9.500000000000005
    vertex 48.500000000000014 5.499999999999996 9.500000000000005
    vertex 48.500000000000014 1.5000000000000029 9.500000000000005
  endloop
endfacet
facet normal -1.0 0.0 0.0
  outer loop
    vertex 10.500000000000014 5.499999999999996 11.500000000000004
    vertex 10.500000000000014 1.5000000000000029 9.500000000000005
    vertex 10.500000000000014 1.5000000000000029 11.500000000000004
  endloop
endfacet
facet normal -1.0 0.0 0.0
  outer loop
    vertex 10.500000000000014 1.5000000000000029 9.500000000000005
    vertex 10.500000000000014 5.499999999999996 11.500000000000004
    vertex 10.500000000000014 5.499999999999996 9.500000000000005
  endloop
endfacet
facet normal 0.0 1.0 0.0
  outer loop
    vertex 10.500000000000014 5.499999999999996 11.500000000000004
    vertex 48.500000000000014 5.499999999999996 9.500000000000005
    vertex 10.500000000000014 5.499999999999996 9.500000000000005
  endloop
endfacet
facet normal 0.0 1.0 0.0
  outer loop
    vertex 48.500000000000014 5.499999999999996 9.500000000000005
    vertex 10.500000000000014 5.499999999999996 11.500000000000004
    vertex 48.500000000000014 5.499999999999996 11.500000000000005
  endloop
endfacet
facet normal 1.0 0.0 0.0
  outer loop
    vertex 48.500000000000014 5.499999999999996 9.500000000000005
    vertex 48.500000000000014 1.5000000000000029 11.500000000000005
    vertex 48.500000000000014 1.5000000000000029 9.500000000000005
  endloop
endfacet
facet normal 1.0 0.0 0.0
  outer loop
    vertex 48.500000000000014 1.5000000000000029 11.500000000000005
    vertex 48.500000000000014 5.499999999999996 9.500000000000005
    vertex 48.500000000000014 5.499999999999996 11.500000000000005
  endloop
endfacet
facet normal 0.0 -1.0 0.0
  outer loop
    vertex 50.0 16.499999999999996 4.499999999999999
    vertex 48.49999999999999 16.499999999999996 2.4999999999999996
    vertex 50.0 16.499999999999996 2.4999999999999996
  endloop
endfacet
facet normal 0.0 -1.0 0.0
  outer loop
    vertex 48.49999999999999 16.499999999999996 2.4999999999999996
    vertex 50.0 16.499999999999996 4.499999999999999
    vertex 48.49999999999999 16.499999999999996 4.499999999999999
  endloop
endfacet
facet normal 0.0 -1.0 0.0
  outer loop
    vertex 48.5 21.5 26.499999999999996
    vertex 1.5000000000000029 21.5 1.5
    vertex 48.5 21.5 1.5
  endloop
endfacet
facet normal 0.0 -1.0 0.0
  outer loop
    vertex 1.5000000000000029 21.5 1.5
    vertex 48.5 21.5 26.499999999999996
    vertex 1.5000000000000029 21.5 26.499999999999996
  endloop
endfacet
facet normal 0.0 0.0 1.0
  outer loop
    vertex 50.0 6.499999999999994 2.4999999999999996
    vertex 48.49999999999999 16.499999999999996 2.4999999999999996
    vertex 48.49999999999999 6.499999999999994 2.4999999999999996
  endloop
endfacet
facet normal 0.0 0.0 1.0
  outer loop
    vertex 48.49999999999999 16.499999999999996 2.4999999999999996
    vertex 50.0 6.499999999999994 2.4999999999999996
    vertex 50.0 16.499999999999996 2.4999999999999996
  endloop
endfacet
facet normal 0.0 0.0 1.0
  outer loop
    vertex 2.8199664825478975e-15 0.0 26.499999999999996
    vertex 1.5000000000000029 1.5000000000000029 26.499999999999996
    vertex 2.8199664825478975e-15 22.999999999999996 26.499999999999996
  endloop
endfacet
facet normal 0.0 0.0 1.0
  outer loop
    vertex 1.5000000000000029 1.5000000000000029 26.499999999999996
    vertex 2.8199664825478975e-15 0.0 26.499999999999996
    vertex 50.0 0.0 26.499999999999996
  endloop
endfacet
facet normal 0.0 0.0 1.0
  outer loop
    vertex 1.5000000000000029 1.5000000000000029 26.499999999999996
    vertex 50.0 0.0 26.499999999999996
    vertex 48.5 1.5000000000000029 26.499999999999996
  endloop
endfacet
facet normal 0.0 0.0 1.0
  outer loop
    vertex 48.5 1.5000000000000029 26.499999999999996
    vertex 50.0 0.0 26.499999999999996
    vertex 48.5 21.5 26.499999999999996
  endloop
endfacet
facet normal 0.0 0.0 1.0
  outer loop
    vertex 2.8199664825478975e-15 22.999999999999996 26.499999999999996
    vertex 1.5000000000000029 21.5 26.499999999999996
    vertex 50.0 22.999999999999996 26.499999999999996
  endloop
endfacet
facet normal 0.0 0.0 1.0
  outer loop
    vertex 1.5000000000000029 21.5 26.499999999999996
    vertex 2.8199664825478975e-15 22.999999999999996 26.499999999999996
    vertex 1.5000000000000029 1.5000000000000029 26.499999999999996
  endloop
endfacet
facet normal 0.0 0.0 1.0
  outer loop
    vertex 50.0 22.999999999999996 26.499999999999996
    vertex 1.5000000000000029 21.5 26.499999999999996
    vertex 48.5 21.5 26.499999999999996
  endloop
endfacet
facet normal 0.0 0.0 1.0
  outer loop
    vertex 50.0 22.999999999999996 26.499999999999996
    vertex 48.5 21.5 26.499999999999996
    vertex 50.0 0.0 26.499999999999996
  endloop
endfacet
facet normal -0.0 -0.0 -1.0
  outer loop
    vertex 50.0 16.499999999999996 4.499999999999999
    vertex 48.49999999999999 6.499999999999994 4.499999999999999
    vertex 48.49999999999999 16.499999999999996 4.499999999999999
  endloop
endfacet
facet normal -0.0 -0.0 -1.0
  outer loop
    vertex 48.49999999999999 6.499999999999994 4.499999999999999
    vertex 50.0 16.499999999999996 4.499999999999999
    vertex 50.0 6.499999999999994 4.499999999999999
  endloop
endfacet
facet normal -1.0 0.0 0.0
  outer loop
    vertex 2.8199664825478975e-15 22.999999999999996 26.499999999999996
    vertex 2.8199664825478975e-15 0.0 0.0
    vertex 2.8199664825478975e-15 0.0 26.499999999999996
  endloop
endfacet
facet normal -1.0 0.0 0.0
  outer loop
    vertex 2.8199664825478975e-15 0.0 0.0
    vertex 2.8199664825478975e-15 22.999999999999996 26.499999999999996
    vertex 2.8199664825478975e-15 22.999999999999996 0.0
  endloop
endfacet
facet normal 0.0 0.0 -1.0
  outer loop
    vertex 50.0 22.999999999999996 0.0
    vertex 2.8199664825478975e-15 0.0 0.0
    vertex 2.8199664825478975e-15 22.999999999999996 0.0
  endloop
endfacet
facet normal 0.0 0.0 -1.0
  outer loop
    vertex 2.8199664825478975e-15 0.0 0.0
    vertex 50.0 22.999999999999996 0.0
    vertex 50.0 0.0 0.0
  endloop
endfacet
facet normal -1.0 -0.0 -0.0
  outer loop
    vertex 48.5 1.5000000000000029 26.499999999999996
    vertex 48.500000000000014 7.499999999999992 17.500000000000007
    vertex 48.5 1.5000000000000029 1.5
  endloop
endfacet
facet normal -1.0 -0.0 -0.0
  outer loop
    vertex 48.500000000000014 7.499999999999992 17.500000000000007
    vertex 48.5 1.5000000000000029 26.499999999999996
    vertex 48.5 21.5 26.499999999999996
  endloop
endfacet
facet normal -1.0 -0.0 -0.0
  outer loop
    vertex 48.5 1.5000000000000029 1.5
    vertex 48.500000000000014 7.499999999999992 17.500000000000007
    vertex 48.49999999999999 6.499999999999994 4.499999999999999
  endloop
endfacet
facet normal -1.0 -0.0 -0.0
  outer loop
    vertex 48.500000000000014 7.499999999999992 17.500000000000007
    vertex 48.5 21.5 26.499999999999996
    vertex 48.500000000000014 15.49999999999999 17.500000000000007
  endloop
endfacet
facet normal -1.0 -0.0 -0.0
  outer loop
    vertex 48.500000000000014 15.49999999999999 17.500000000000007
    vertex 48.5 21.5 26.499999999999996
    vertex 48.500000000000014 15.49999999999999 13.500000000000009
  endloop
endfacet
facet normal -1.0 -0.0 -0.0
  outer loop
    vertex 48.500000000000014 15.49999999999999 13.500000000000009
    vertex 48.5 21.5 26.499999999999996
    vertex 48.49999999999999 16.499999999999996 4.499999999999999
  endloop
endfacet
facet normal -1.0 -0.0 -0.0
  outer loop
    vertex 48.49999999999999 16.499999999999996 4.499999999999999
    vertex 48.5 21.5 26.499999999999996
    vertex 48.49999999999999 16.499999999999996 2.4999999999999996
  endloop
endfacet
facet normal -1.0 -0.0 -0.0
  outer loop
    vertex 48.5 1.5000000000000029 1.5
    vertex 48.49999999999999 6.499999999999994 2.4999999999999996
    vertex 48.5 21.5 1.5
  endloop
endfacet
facet normal -1.0 -0.0 -0.0
  outer loop
    vertex 48.49999999999999 6.499999999999994 2.4999999999999996
    vertex 48.5 1.5000000000000029 1.5
    vertex 48.49999999999999 6.499999999999994 4.499999999999999
  endloop
endfacet
facet normal -1.0 -0.0 -0.0
  outer loop
    vertex 48.5 21.5 1.5
    vertex 48.49999999999999 6.499999999999994 2.4999999999999996
    vertex 48.49999999999999 16.499999999999996 2.4999999999999996
  endloop
endfacet
facet normal -1.0 -0.0 -0.0
  outer loop
    vertex 48.5 21.5 1.5
    vertex 48.49999999999999 16.499999999999996 2.4999999999999996
    vertex 48.5 21.5 26.499999999999996
  endloop
endfacet
facet normal -1.0 -0.0 -0.0
  outer loop
    vertex 48.49999999999999 6.499999999999994 4.499999999999999
    vertex 48.500000000000014 7.499999999999992 13.500000000000009
    vertex 48.49999999999999 16.499999999999996 4.499999999999999
  endloop
endfacet
facet normal -1.0 -0.0 -0.0
  outer loop
    vertex 48.500000000000014 7.499999999999992 13.500000000000009
    vertex 48.49999999999999 6.499999999999994 4.499999999999999
    vertex 48.500000000000014 7.499999999999992 17.500000000000007
  endloop
endfacet
facet normal -1.0 -0.0 -0.0
  outer loop
    vertex 48.49999999999999 16.499999999999996 4.499999999999999
    vertex 48.500000000000014 7.499999999999992 13.500000000000009
    vertex 48.500000000000014 15.49999999999999 13.500000000000009
  endloop
endfacet
facet normal 0.0 1.0 0.0
  outer loop
    vertex 1.5000000000000029 1.5000000000000029 26.499999999999996
    vertex 48.5 1.5000000000000029 1.5
    vertex 1.5000000000000029 1.5000000000000029 1.5
  endloop
endfacet
facet normal 0.0 1.0 0.0
  outer loop
    vertex 48.5 1.5000000000000029 1.5
    vertex 1.5000000000000029 1.5000000000000029 26.499999999999996
    vertex 48.5 1.5000000000000029 26.499999999999996
  endloop
endfacet
facet normal 1.0 0.0 0.0
  outer loop
    vertex 50.0 16.499999999999996 4.499999999999999
    vertex 50.0 7.499999999999992 13.500000000000009
    vertex 50.0 6.499999999999994 4.499999999999999
  endloop
endfacet
facet normal 1.0 0.0 0.0
  outer loop
    vertex 50.0 7.499999999999992 13.500000000000009
    vertex 50.0 16.499999999999996 4.499999999999999
    vertex 50.0 15.49999999999999 13.500000000000009
  endloop
endfacet
facet normal 1.0 0.0 0.0
  outer loop
    vertex 50.0 15.49999999999999 13.500000000000009
    vertex 50.0 16.499999999999996 4.499999999999999
    vertex 50.0 15.49999999999999 17.500000000000007
  endloop
endfacet
facet normal 1.0 0.0 0.0
  outer loop
    vertex 50.0 0.0 0.0
    vertex 50.0 6.499999999999994 2.4999999999999996
    vertex 50.0 0.0 26.499999999999996
  endloop
endfacet
facet normal 1.0 0.0 0.0
  outer loop
    vertex 50.0 6.499999999999994 2.4999999999999996
    vertex 50.0 0.0 0.0
    vertex 50.0 22.999999999999996 0.0
  endloop
endfacet
facet normal 1.0 0.0 0.0
  outer loop
    vertex 50.0 6.499999999999994 2.4999999999999996
    vertex 50.0 22.999999999999996 0.0
    vertex 50.0 16.499999999999996 2.4999999999999996
  endloop
endfacet
facet normal 1.0 0.0 0.0
  outer loop
    vertex 50.0 16.499999999999996 2.4999999999999996
    vertex 50.0 22.999999999999996 0.0
    vertex 50.0 16.499999999999996 4.499999999999999
  endloop
endfacet
facet normal 1.0 0.0 0.0
  outer loop
    vertex 50.0 0.0 26.499999999999996
    vertex 50.0 7.499999999999992 17.500000000000007
    vertex 50.0 22.999999999999996 26.499999999999996
  endloop
endfacet
facet normal 1.0 0.0 0.0
  outer loop
    vertex 50.0 7.499999999999992 17.500000000000007
    vertex 50.0 0.0 26.499999999999996
    vertex 50.0 6.499999999999994 4.499999999999999
  endloop
endfacet
facet normal 1.0 0.0 0.0
  outer loop
    vertex 50.0 6.499999999999994 4.499999999999999
    vertex 50.0 0.0 26.499999999999996
    vertex 50.0 6.499999999999994 2.4999999999999996
  endloop
endfacet
facet normal 1.0 0.0 0.0
  outer loop
    vertex 50.0 7.499999999999992 17.500000000000007
    vertex 50.0 6.499999999999994 4.499999999999999
    vertex 50.0 7.499999999999992 13.500000000000009
  endloop
endfacet
facet normal 1.0 0.0 0.0
  outer loop
    vertex 50.0 22.999999999999996 26.499999999999996
    vertex 50.0 7.499999999999992 17.500000000000007
    vertex 50.0 15.49999999999999 17.500000000000007
  endloop
endfacet
facet normal 1.0 0.0 0.0
  outer loop
    vertex 50.0 22.999999999999996 26.499999999999996
    vertex 50.0 15.49999999999999 17.500000000000007
    vertex 50.0 16.499999999999996 4.499999999999999
  endloop
endfacet
facet normal 1.0 0.0 0.0
  outer loop
    vertex 50.0 22.999999999999996 26.499999999999996
    vertex 50.0 16.499999999999996 4.499999999999999
    vertex 50.0 22.999999999999996 0.0
  endloop
endfacet
facet normal 1.0 0.0 0.0
  outer loop
    vertex 1.5000000000000029 21.5 1.5
    vertex 1.5000000000000029 1.5000000000000029 26.499999999999996
    vertex 1.5000000000000029 1.5000000000000029 1.5
  endloop
endfacet
facet normal 1.0 0.0 0.0
  outer loop
    vertex 1.5000000000000029 1.5000000000000029 26.499999999999996
    vertex 1.5000000000000029 21.5 1.5
    vertex 1.5000000000000029 21.5 26.499999999999996
  endloop
endfacet
facet normal 0.0 0.0 1.0
  outer loop
    vertex 48.5 1.5000000000000029 1.5
    vertex 1.5000000000000029 21.5 1.5
    vertex 1.5000000000000029 1.5000000000000029 1.5
  endloop
endfacet
facet normal 0.0 0.0 1.0
  outer loop
    vertex 1.5000000000000029 21.5 1.5
    vertex 48.5 1.5000000000000029 1.5
    vertex 48.5 21.5 1.5
  endloop
endfacet
facet normal 0.0 1.0 0.0
  outer loop
    vertex 48.49999999999999 6.499999999999994 4.499999999999999
    vertex 50.0 6.499999999999994 2.4999999999999996
    vertex 48.49999999999999 6.499999999999994 2.4999999999999996
  endloop
endfacet
facet normal 0.0 1.0 0.0
  outer loop
    vertex 50.0 6.499999999999994 2.4999999999999996
    vertex 48.49999999999999 6.499999999999994 4.499999999999999
    vertex 50.0 6.499999999999994 4.499999999999999
  endloop
endfacet
facet normal -0.0 -1.0 -0.0
  outer loop
    vertex 50.0 0.0 26.499999999999996
    vertex 2.8199664825478975e-15 0.0 0.0
    vertex 50.0 0.0 0.0
  endloop
endfacet
facet normal -0.0 -1.0 -0.0
  outer loop
    vertex 2.8199664825478975e-15 0.0 0.0
    vertex 50.0 0.0 26.499999999999996
    vertex 2.8199664825478975e-15 0.0 26.499999999999996
  endloop
endfacet
facet normal 0.0 1.0 0.0
  outer loop
    vertex 2.8199664825478975e-15 22.999999999999996 26.499999999999996
    vertex 50.0 22.999999999999996 0.0
    vertex 2.8199664825478975e-15 22.999999999999996 0.0
  endloop
endfacet
facet normal 0.0 1.0 0.0
  outer loop
    vertex 50.0 22.999999999999996 0.0
    vertex 2.8199664825478975e-15 22.999999999999996 26.499999999999996
    vertex 50.0 22.999999999999996 26.499999999999996
  endloop
endfacet
facet normal 0.0 1.0 0.0
  outer loop
    vertex 48.500000000000014 7.499999999999992 17.500000000000007
    vertex 50.0 7.499999999999992 13.500000000000009
    vertex 48.500000000000014 7.499999999999992 13.500000000000009
  endloop
endfacet
facet normal 0.0 1.0 0.0
  outer loop
    vertex 50.0 7.499999999999992 13.500000000000009
    vertex 48.500000000000014 7.499999999999992 17.500000000000007
    vertex 50.0 7.499999999999992 17.500000000000007
  endloop
endfacet
facet normal 0.0 0.0 1.0
  outer loop
    vertex 50.0 7.499999999999992 13.500000000000009
    vertex 48.500000000000014 15.49999999999999 13.500000000000009
    vertex 48.500000000000014 7.499999999999992 13.500000000000009
  endloop
endfacet
facet normal 0.0 0.0 1.0
  outer loop
    vertex 48.500000000000014 15.49999999999999 13.500000000000009
    vertex 50.0 7.499999999999992 13.500000000000009
    vertex 50.0 15.49999999999999 13.500000000000009
  endloop
endfacet
facet normal -0.0 -1.0 -0.0
  outer loop
    vertex 50.0 15.49999999999999 17.500000000000007
    vertex 48.500000000000014 15.49999999999999 13.500000000000009
    vertex 50.0 15.49999999999999 13.500000000000009
  endloop
endfacet
facet normal -0.0 -1.0 -0.0
  outer loop
    vertex 48.500000000000014 15.49999999999999 13.500000000000009
    vertex 50.0 15.49999999999999 17.500000000000007
    vertex 48.500000000000014 15.49999999999999 17.500000000000007
  endloop
endfacet
facet normal 0.0 0.0 -1.0
  outer loop
    vertex 50.0 15.49999999999999 17.500000000000007
    vertex 48.500000000000014 7.499999999999992 17.500000000000007
    vertex 48.500000000000014 15.49999999999999 17.500000000000007
  endloop
endfacet
facet normal 0.0 0.0 -1.0
  outer loop
    vertex 48.500000000000014 7.499999999999992 17.500000000000007
    vertex 50.0 15.49999999999999 17.500000000000007
    vertex 50.0 7.499999999999992 17.500000000000007
  endloop
endfacet
endsolid LoRaReceiverBoxv2
