solid LoRaReceiverBoxv2
facet normal 7.657137397853899e-16 -2.8310687127941488e-15 -1.0
  outer loop
    vertex 3.947953075567056e-14 22.99999999999998 -1.930644993679183e-15
    vertex 36.00000000000004 45.99999999999998 -3.947953075567056e-14
    vertex 36.00000000000004 22.99999999999998 2.5635049638594856e-14
  endloop
endfacet
facet normal 7.657137397853899e-16 -2.8310687127941488e-15 -1.0
  outer loop
    vertex 36.00000000000004 45.99999999999998 -3.947953075567056e-14
    vertex 3.947953075567056e-14 22.99999999999998 -1.930644993679183e-15
    vertex 3.947953075567056e-14 45.99999999999998 -6.70452253879446e-14
  endloop
endfacet
facet normal -7.657137397853899e-16 2.8310687127941488e-15 1.0
  outer loop
    vertex 3.947953075567056e-14 45.999999999999986 0.9999999999999329
    vertex 36.00000000000004 22.999999999999982 1.0000000000000255
    vertex 36.00000000000004 45.999999999999986 0.9999999999999605
  endloop
endfacet
facet normal -7.657137397853899e-16 2.8310687127941488e-15 1.0
  outer loop
    vertex 36.00000000000004 22.999999999999982 1.0000000000000255
    vertex 3.947953075567056e-14 45.999999999999986 0.9999999999999329
    vertex 3.947953075567056e-14 22.999999999999982 0.999999999999998
  endloop
endfacet
facet normal -1.0 -2.1677882116630177e-30 -7.657137397853899e-16
  outer loop
    vertex 3.947953075567056e-14 22.99999999999998 -1.930644993679183e-15
    vertex 3.947953075567056e-14 45.999999999999986 0.9999999999999329
    vertex 3.947953075567056e-14 45.99999999999998 -6.70452253879446e-14
  endloop
endfacet
facet normal -1.0 -2.1677882116630177e-30 -7.657137397853899e-16
  outer loop
    vertex 3.947953075567056e-14 45.999999999999986 0.9999999999999329
    vertex 3.947953075567056e-14 22.99999999999998 -1.930644993679183e-15
    vertex 3.947953075567056e-14 22.999999999999982 0.999999999999998
  endloop
endfacet
facet normal 0.0 1.0 -2.8310687127941488e-15
  outer loop
    vertex 3.947953075567056e-14 45.999999999999986 0.9999999999999329
    vertex 36.00000000000004 45.99999999999998 -3.947953075567056e-14
    vertex 3.947953075567056e-14 45.99999999999998 -6.70452253879446e-14
  endloop
endfacet
facet normal 0.0 1.0 -2.8310687127941488e-15
  outer loop
    vertex 36.00000000000004 45.99999999999998 -3.947953075567056e-14
    vertex 3.947953075567056e-14 45.999999999999986 0.9999999999999329
    vertex 36.00000000000004 45.999999999999986 0.9999999999999605
  endloop
endfacet
facet normal 1.0 2.1677882116630177e-30 7.657137397853899e-16
  outer loop
    vertex 36.00000000000004 22.999999999999982 1.0000000000000255
    vertex 36.00000000000004 45.99999999999998 -3.947953075567056e-14
    vertex 36.00000000000004 45.999999999999986 0.9999999999999605
  endloop
endfacet
facet normal 1.0 2.1677882116630177e-30 7.657137397853899e-16
  outer loop
    vertex 36.00000000000004 45.99999999999998 -3.947953075567056e-14
    vertex 36.00000000000004 22.999999999999982 1.0000000000000255
    vertex 36.00000000000004 22.99999999999998 2.5635049638594856e-14
  endloop
endfacet
facet normal 0.0 -1.0 2.8310687127941488e-15
  outer loop
    vertex 36.00000000000004 22.999999999999982 1.0000000000000255
    vertex 3.947953075567056e-14 22.99999999999998 -1.930644993679183e-15
    vertex 36.00000000000004 22.99999999999998 2.5635049638594856e-14
  endloop
endfacet
facet normal 0.0 -1.0 2.8310687127941488e-15
  outer loop
    vertex 3.947953075567056e-14 22.99999999999998 -1.930644993679183e-15
    vertex 36.00000000000004 22.999999999999982 1.0000000000000255
    vertex 3.947953075567056e-14 22.999999999999982 0.999999999999998
  endloop
endfacet
facet normal -7.657137397853899e-16 2.8310687127941488e-15 1.0
  outer loop
    vertex 36.00000000000004 45.999999999999986 0.9999999999999605
    vertex 34.30000000000004 44.299999999999976 0.999999999999964
    vertex 36.00000000000004 22.999999999999982 1.0000000000000255
  endloop
endfacet
facet normal -7.657137397853899e-16 2.8310687127941488e-15 1.0
  outer loop
    vertex 34.30000000000004 44.299999999999976 0.999999999999964
    vertex 36.00000000000004 45.999999999999986 0.9999999999999605
    vertex 3.947953075567056e-14 45.999999999999986 0.9999999999999329
  endloop
endfacet
facet normal -7.657137397853899e-16 2.8310687127941488e-15 1.0
  outer loop
    vertex 34.30000000000004 44.299999999999976 0.999999999999964
    vertex 3.947953075567056e-14 45.999999999999986 0.9999999999999329
    vertex 1.700000000000042 44.299999999999976 0.9999999999999389
  endloop
endfacet
facet normal -7.657137397853899e-16 2.8310687127941488e-15 1.0
  outer loop
    vertex 1.700000000000042 44.299999999999976 0.9999999999999389
    vertex 3.947953075567056e-14 45.999999999999986 0.9999999999999329
    vertex 1.700000000000042 24.69999999999998 0.9999999999999944
  endloop
endfacet
facet normal -7.657137397853899e-16 2.8310687127941488e-15 1.0
  outer loop
    vertex 36.00000000000004 22.999999999999982 1.0000000000000255
    vertex 34.30000000000004 24.69999999999998 1.0000000000000195
    vertex 3.947953075567056e-14 22.999999999999982 0.999999999999998
  endloop
endfacet
facet normal -7.657137397853899e-16 2.8310687127941488e-15 1.0
  outer loop
    vertex 34.30000000000004 24.69999999999998 1.0000000000000195
    vertex 36.00000000000004 22.999999999999982 1.0000000000000255
    vertex 34.30000000000004 44.299999999999976 0.999999999999964
  endloop
endfacet
facet normal -7.657137397853899e-16 2.8310687127941488e-15 1.0
  outer loop
    vertex 3.947953075567056e-14 22.999999999999982 0.999999999999998
    vertex 34.30000000000004 24.69999999999998 1.0000000000000195
    vertex 1.700000000000042 24.69999999999998 0.9999999999999944
  endloop
endfacet
facet normal -7.657137397853899e-16 2.8310687127941488e-15 1.0
  outer loop
    vertex 3.947953075567056e-14 22.999999999999982 0.999999999999998
    vertex 1.700000000000042 24.69999999999998 0.9999999999999944
    vertex 3.947953075567056e-14 45.999999999999986 0.9999999999999329
  endloop
endfacet
facet normal -7.657137397853899e-16 2.8310687127941488e-15 1.0
  outer loop
    vertex 2.70000000000004 43.299999999999976 0.9999999999999426
    vertex 33.30000000000004 25.699999999999974 1.0000000000000158
    vertex 33.30000000000004 43.299999999999976 0.9999999999999661
  endloop
endfacet
facet normal -7.657137397853899e-16 2.8310687127941488e-15 1.0
  outer loop
    vertex 33.30000000000004 25.699999999999974 1.0000000000000158
    vertex 2.70000000000004 43.299999999999976 0.9999999999999426
    vertex 2.70000000000004 25.699999999999974 0.9999999999999923
  endloop
endfacet
facet normal 0.0 -1.0 2.8310687127941488e-15
  outer loop
    vertex 33.30000000000004 43.29999999999998 1.999999999999966
    vertex 2.70000000000004 43.299999999999976 0.9999999999999426
    vertex 33.30000000000004 43.299999999999976 0.9999999999999661
  endloop
endfacet
facet normal 0.0 -1.0 2.8310687127941488e-15
  outer loop
    vertex 2.70000000000004 43.299999999999976 0.9999999999999426
    vertex 33.30000000000004 43.29999999999998 1.999999999999966
    vertex 2.70000000000004 43.29999999999998 1.9999999999999425
  endloop
endfacet
facet normal -1.0 -2.1677882116630177e-30 -7.657137397853899e-16
  outer loop
    vertex 33.30000000000004 25.699999999999974 1.0000000000000158
    vertex 33.30000000000004 43.29999999999998 1.999999999999966
    vertex 33.30000000000004 43.299999999999976 0.9999999999999661
  endloop
endfacet
facet normal -1.0 -2.1677882116630177e-30 -7.657137397853899e-16
  outer loop
    vertex 33.30000000000004 43.29999999999998 1.999999999999966
    vertex 33.30000000000004 25.699999999999974 1.0000000000000158
    vertex 33.30000000000004 25.69999999999998 2.0000000000000155
  endloop
endfacet
facet normal 1.0 2.1677882116630177e-30 7.657137397853899e-16
  outer loop
    vertex 2.70000000000004 25.69999999999998 1.9999999999999925
    vertex 2.70000000000004 43.299999999999976 0.9999999999999426
    vertex 2.70000000000004 43.29999999999998 1.9999999999999425
  endloop
endfacet
facet normal 1.0 2.1677882116630177e-30 7.657137397853899e-16
  outer loop
    vertex 2.70000000000004 43.299999999999976 0.9999999999999426
    vertex 2.70000000000004 25.69999999999998 1.9999999999999925
    vertex 2.70000000000004 25.699999999999974 0.9999999999999923
  endloop
endfacet
facet normal -0.0 1.0 -2.8310687127941488e-15
  outer loop
    vertex 1.700000000000042 44.29999999999998 1.999999999999939
    vertex 34.30000000000004 44.299999999999976 0.999999999999964
    vertex 1.700000000000042 44.299999999999976 0.9999999999999389
  endloop
endfacet
facet normal -0.0 1.0 -2.8310687127941488e-15
  outer loop
    vertex 34.30000000000004 44.299999999999976 0.999999999999964
    vertex 1.700000000000042 44.29999999999998 1.999999999999939
    vertex 34.30000000000004 44.29999999999998 1.9999999999999638
  endloop
endfacet
facet normal -1.0 -2.1677882116630177e-30 -7.657137397853899e-16
  outer loop
    vertex 1.700000000000042 24.69999999999998 0.9999999999999944
    vertex 1.700000000000042 44.29999999999998 1.999999999999939
    vertex 1.700000000000042 44.299999999999976 0.9999999999999389
  endloop
endfacet
facet normal -1.0 -2.1677882116630177e-30 -7.657137397853899e-16
  outer loop
    vertex 1.700000000000042 44.29999999999998 1.999999999999939
    vertex 1.700000000000042 24.69999999999998 0.9999999999999944
    vertex 1.700000000000042 24.69999999999998 1.9999999999999947
  endloop
endfacet
facet normal 0.0 -1.0 2.8310687127941488e-15
  outer loop
    vertex 34.30000000000004 24.69999999999998 2.000000000000019
    vertex 1.700000000000042 24.69999999999998 0.9999999999999944
    vertex 34.30000000000004 24.69999999999998 1.0000000000000195
  endloop
endfacet
facet normal 0.0 -1.0 2.8310687127941488e-15
  outer loop
    vertex 1.700000000000042 24.69999999999998 0.9999999999999944
    vertex 34.30000000000004 24.69999999999998 2.000000000000019
    vertex 1.700000000000042 24.69999999999998 1.9999999999999947
  endloop
endfacet
facet normal -0.0 1.0 -2.8310687127941488e-15
  outer loop
    vertex 2.70000000000004 25.69999999999998 1.9999999999999925
    vertex 33.30000000000004 25.699999999999974 1.0000000000000158
    vertex 2.70000000000004 25.699999999999974 0.9999999999999923
  endloop
endfacet
facet normal -0.0 1.0 -2.8310687127941488e-15
  outer loop
    vertex 33.30000000000004 25.699999999999974 1.0000000000000158
    vertex 2.70000000000004 25.69999999999998 1.9999999999999925
    vertex 33.30000000000004 25.69999999999998 2.0000000000000155
  endloop
endfacet
facet normal -7.657137397853899e-16 2.8310687127941488e-15 1.0
  outer loop
    vertex 34.30000000000004 44.29999999999998 1.9999999999999638
    vertex 33.30000000000004 43.29999999999998 1.999999999999966
    vertex 34.30000000000004 24.69999999999998 2.000000000000019
  endloop
endfacet
facet normal -7.657137397853899e-16 2.8310687127941488e-15 1.0
  outer loop
    vertex 33.30000000000004 43.29999999999998 1.999999999999966
    vertex 34.30000000000004 44.29999999999998 1.9999999999999638
    vertex 1.700000000000042 44.29999999999998 1.999999999999939
  endloop
endfacet
facet normal -7.657137397853899e-16 2.8310687127941488e-15 1.0
  outer loop
    vertex 33.30000000000004 43.29999999999998 1.999999999999966
    vertex 1.700000000000042 44.29999999999998 1.999999999999939
    vertex 2.70000000000004 43.29999999999998 1.9999999999999425
  endloop
endfacet
facet normal -7.657137397853899e-16 2.8310687127941488e-15 1.0
  outer loop
    vertex 2.70000000000004 43.29999999999998 1.9999999999999425
    vertex 1.700000000000042 44.29999999999998 1.999999999999939
    vertex 2.70000000000004 25.69999999999998 1.9999999999999925
  endloop
endfacet
facet normal -7.657137397853899e-16 2.8310687127941488e-15 1.0
  outer loop
    vertex 34.30000000000004 24.69999999999998 2.000000000000019
    vertex 33.30000000000004 25.69999999999998 2.0000000000000155
    vertex 1.700000000000042 24.69999999999998 1.9999999999999947
  endloop
endfacet
facet normal -7.657137397853899e-16 2.8310687127941488e-15 1.0
  outer loop
    vertex 33.30000000000004 25.69999999999998 2.0000000000000155
    vertex 34.30000000000004 24.69999999999998 2.000000000000019
    vertex 33.30000000000004 43.29999999999998 1.999999999999966
  endloop
endfacet
facet normal -7.657137397853899e-16 2.8310687127941488e-15 1.0
  outer loop
    vertex 1.700000000000042 24.69999999999998 1.9999999999999947
    vertex 33.30000000000004 25.69999999999998 2.0000000000000155
    vertex 2.70000000000004 25.69999999999998 1.9999999999999925
  endloop
endfacet
facet normal -7.657137397853899e-16 2.8310687127941488e-15 1.0
  outer loop
    vertex 1.700000000000042 24.69999999999998 1.9999999999999947
    vertex 2.70000000000004 25.69999999999998 1.9999999999999925
    vertex 1.700000000000042 44.29999999999998 1.999999999999939
  endloop
endfacet
facet normal 1.0 2.1677882116630177e-30 7.657137397853899e-16
  outer loop
    vertex 34.30000000000004 24.69999999999998 2.000000000000019
    vertex 34.30000000000004 44.299999999999976 0.999999999999964
    vertex 34.30000000000004 44.29999999999998 1.9999999999999638
  endloop
endfacet
facet normal 1.0 2.1677882116630177e-30 7.657137397853899e-16
  outer loop
    vertex 34.30000000000004 44.299999999999976 0.999999999999964
    vertex 34.30000000000004 24.69999999999998 2.000000000000019
    vertex 34.30000000000004 24.69999999999998 1.0000000000000195
  endloop
endfacet
endsolid LoRaReceiverBoxv2
