solid LoRaBoxv2
facet normal 1.0 0.0 0.0
  outer loop
    vertex 55.15475996761828 45.16520951185126 0.0
    vertex 55.15475996761828 51.66520951185125 2.4999999999999996
    vertex 55.15475996761828 45.16520951185126 26.499999999999996
  endloop
endfacet
facet normal 1.0 0.0 0.0
  outer loop
    vertex 55.15475996761828 51.66520951185125 2.4999999999999996
    vertex 55.15475996761828 45.16520951185126 0.0
    vertex 55.15475996761828 68.16520951185126 0.0
  endloop
endfacet
facet normal 1.0 0.0 0.0
  outer loop
    vertex 55.15475996761828 51.66520951185125 2.4999999999999996
    vertex 55.15475996761828 68.16520951185126 0.0
    vertex 55.15475996761828 61.66520951185126 2.4999999999999996
  endloop
endfacet
facet normal 1.0 0.0 0.0
  outer loop
    vertex 55.15475996761828 61.66520951185126 2.4999999999999996
    vertex 55.15475996761828 68.16520951185126 0.0
    vertex 55.15475996761828 61.66520951185126 4.499999999999999
  endloop
endfacet
facet normal 1.0 0.0 0.0
  outer loop
    vertex 55.15475996761828 45.16520951185126 26.499999999999996
    vertex 55.15475996761828 51.66520951185125 4.499999999999999
    vertex 55.15475996761828 68.16520951185126 26.499999999999996
  endloop
endfacet
facet normal 1.0 0.0 0.0
  outer loop
    vertex 55.15475996761828 51.66520951185125 4.499999999999999
    vertex 55.15475996761828 45.16520951185126 26.499999999999996
    vertex 55.15475996761828 51.66520951185125 2.4999999999999996
  endloop
endfacet
facet normal 1.0 0.0 0.0
  outer loop
    vertex 55.15475996761828 68.16520951185126 26.499999999999996
    vertex 55.15475996761828 51.66520951185125 4.499999999999999
    vertex 55.15475996761828 61.66520951185126 4.499999999999999
  endloop
endfacet
facet normal 1.0 0.0 0.0
  outer loop
    vertex 55.15475996761828 68.16520951185126 26.499999999999996
    vertex 55.15475996761828 61.66520951185126 4.499999999999999
    vertex 55.15475996761828 68.16520951185126 0.0
  endloop
endfacet
facet normal -1.0 -0.0 -0.0
  outer loop
    vertex 53.65475996761828 66.66520951185126 26.499999999999996
    vertex 53.65475996761828 46.665209511851266 1.5
    vertex 53.65475996761828 46.665209511851266 26.499999999999996
  endloop
endfacet
facet normal -1.0 -0.0 -0.0
  outer loop
    vertex 53.65475996761828 46.665209511851266 1.5
    vertex 53.65475996761828 66.66520951185126 26.499999999999996
    vertex 53.65475996761827 51.66520951185125 4.499999999999999
  endloop
endfacet
facet normal -1.0 -0.0 -0.0
  outer loop
    vertex 53.65475996761827 51.66520951185125 4.499999999999999
    vertex 53.65475996761828 66.66520951185126 26.499999999999996
    vertex 53.65475996761827 61.66520951185126 4.499999999999999
  endloop
endfacet
facet normal -1.0 -0.0 -0.0
  outer loop
    vertex 53.65475996761827 61.66520951185126 4.499999999999999
    vertex 53.65475996761828 66.66520951185126 26.499999999999996
    vertex 53.65475996761827 61.66520951185126 2.4999999999999996
  endloop
endfacet
facet normal -1.0 -0.0 -0.0
  outer loop
    vertex 53.65475996761828 46.665209511851266 1.5
    vertex 53.65475996761827 51.66520951185125 2.4999999999999996
    vertex 53.65475996761828 66.66520951185126 1.5
  endloop
endfacet
facet normal -1.0 -0.0 -0.0
  outer loop
    vertex 53.65475996761827 51.66520951185125 2.4999999999999996
    vertex 53.65475996761828 46.665209511851266 1.5
    vertex 53.65475996761827 51.66520951185125 4.499999999999999
  endloop
endfacet
facet normal -1.0 -0.0 -0.0
  outer loop
    vertex 53.65475996761828 66.66520951185126 1.5
    vertex 53.65475996761827 51.66520951185125 2.4999999999999996
    vertex 53.65475996761827 61.66520951185126 2.4999999999999996
  endloop
endfacet
facet normal -1.0 -0.0 -0.0
  outer loop
    vertex 53.65475996761828 66.66520951185126 1.5
    vertex 53.65475996761827 61.66520951185126 2.4999999999999996
    vertex 53.65475996761828 66.66520951185126 26.499999999999996
  endloop
endfacet
facet normal 0.0 1.0 0.0
  outer loop
    vertex 53.65475996761827 51.66520951185125 4.499999999999999
    vertex 55.15475996761828 51.66520951185125 2.4999999999999996
    vertex 53.65475996761827 51.66520951185125 2.4999999999999996
  endloop
endfacet
facet normal 0.0 1.0 0.0
  outer loop
    vertex 55.15475996761828 51.66520951185125 2.4999999999999996
    vertex 53.65475996761827 51.66520951185125 4.499999999999999
    vertex 55.15475996761828 51.66520951185125 4.499999999999999
  endloop
endfacet
facet normal 0.0 0.0 1.0
  outer loop
    vertex 53.65475996761828 46.665209511851266 1.5
    vertex 6.654759967618281 66.66520951185126 1.5
    vertex 6.654759967618281 46.665209511851266 1.5
  endloop
endfacet
facet normal 0.0 0.0 1.0
  outer loop
    vertex 6.654759967618281 66.66520951185126 1.5
    vertex 53.65475996761828 46.665209511851266 1.5
    vertex 53.65475996761828 66.66520951185126 1.5
  endloop
endfacet
facet normal 0.0 -1.0 0.0
  outer loop
    vertex 55.15475996761828 61.66520951185126 4.499999999999999
    vertex 53.65475996761827 61.66520951185126 2.4999999999999996
    vertex 55.15475996761828 61.66520951185126 2.4999999999999996
  endloop
endfacet
facet normal 0.0 -1.0 0.0
  outer loop
    vertex 53.65475996761827 61.66520951185126 2.4999999999999996
    vertex 55.15475996761828 61.66520951185126 4.499999999999999
    vertex 53.65475996761827 61.66520951185126 4.499999999999999
  endloop
endfacet
facet normal 0.0 1.0 0.0
  outer loop
    vertex 6.654759967618281 46.665209511851266 26.499999999999996
    vertex 53.65475996761828 46.665209511851266 1.5
    vertex 6.654759967618281 46.665209511851266 1.5
  endloop
endfacet
facet normal 0.0 1.0 0.0
  outer loop
    vertex 53.65475996761828 46.665209511851266 1.5
    vertex 6.654759967618281 46.665209511851266 26.499999999999996
    vertex 53.65475996761828 46.665209511851266 26.499999999999996
  endloop
endfacet
facet normal 0.0 -1.0 0.0
  outer loop
    vertex 53.65475996761828 66.66520951185126 26.499999999999996
    vertex 6.654759967618281 66.66520951185126 1.5
    vertex 53.65475996761828 66.66520951185126 1.5
  endloop
endfacet
facet normal 0.0 -1.0 0.0
  outer loop
    vertex 6.654759967618281 66.66520951185126 1.5
    vertex 53.65475996761828 66.66520951185126 26.499999999999996
    vertex 6.654759967618281 66.66520951185126 26.499999999999996
  endloop
endfacet
facet normal 1.0 0.0 0.0
  outer loop
    vertex 6.654759967618281 66.66520951185126 1.5
    vertex 6.654759967618281 46.665209511851266 26.499999999999996
    vertex 6.654759967618281 46.665209511851266 1.5
  endloop
endfacet
facet normal 1.0 0.0 0.0
  outer loop
    vertex 6.654759967618281 46.665209511851266 26.499999999999996
    vertex 6.654759967618281 66.66520951185126 1.5
    vertex 6.654759967618281 66.66520951185126 26.499999999999996
  endloop
endfacet
facet normal 0.0 1.0 0.0
  outer loop
    vertex 5.154759967618281 68.16520951185126 26.499999999999996
    vertex 55.15475996761828 68.16520951185126 0.0
    vertex 5.154759967618281 68.16520951185126 0.0
  endloop
endfacet
facet normal 0.0 1.0 0.0
  outer loop
    vertex 55.15475996761828 68.16520951185126 0.0
    vertex 5.154759967618281 68.16520951185126 26.499999999999996
    vertex 55.15475996761828 68.16520951185126 26.499999999999996
  endloop
endfacet
facet normal -0.0 -0.0 -1.0
  outer loop
    vertex 55.15475996761828 61.66520951185126 4.499999999999999
    vertex 53.65475996761827 51.66520951185125 4.499999999999999
    vertex 53.65475996761827 61.66520951185126 4.499999999999999
  endloop
endfacet
facet normal -0.0 -0.0 -1.0
  outer loop
    vertex 53.65475996761827 51.66520951185125 4.499999999999999
    vertex 55.15475996761828 61.66520951185126 4.499999999999999
    vertex 55.15475996761828 51.66520951185125 4.499999999999999
  endloop
endfacet
facet normal 0.0 0.0 1.0
  outer loop
    vertex 55.15475996761828 51.66520951185125 2.4999999999999996
    vertex 53.65475996761827 61.66520951185126 2.4999999999999996
    vertex 53.65475996761827 51.66520951185125 2.4999999999999996
  endloop
endfacet
facet normal 0.0 0.0 1.0
  outer loop
    vertex 53.65475996761827 61.66520951185126 2.4999999999999996
    vertex 55.15475996761828 51.66520951185125 2.4999999999999996
    vertex 55.15475996761828 61.66520951185126 2.4999999999999996
  endloop
endfacet
facet normal 0.0 0.0 1.0
  outer loop
    vertex 5.154759967618281 45.16520951185126 26.499999999999996
    vertex 6.654759967618281 46.665209511851266 26.499999999999996
    vertex 5.154759967618281 68.16520951185126 26.499999999999996
  endloop
endfacet
facet normal 0.0 0.0 1.0
  outer loop
    vertex 6.654759967618281 46.665209511851266 26.499999999999996
    vertex 5.154759967618281 45.16520951185126 26.499999999999996
    vertex 55.15475996761828 45.16520951185126 26.499999999999996
  endloop
endfacet
facet normal 0.0 0.0 1.0
  outer loop
    vertex 6.654759967618281 46.665209511851266 26.499999999999996
    vertex 55.15475996761828 45.16520951185126 26.499999999999996
    vertex 53.65475996761828 46.665209511851266 26.499999999999996
  endloop
endfacet
facet normal 0.0 0.0 1.0
  outer loop
    vertex 53.65475996761828 46.665209511851266 26.499999999999996
    vertex 55.15475996761828 45.16520951185126 26.499999999999996
    vertex 53.65475996761828 66.66520951185126 26.499999999999996
  endloop
endfacet
facet normal 0.0 0.0 1.0
  outer loop
    vertex 5.154759967618281 68.16520951185126 26.499999999999996
    vertex 6.654759967618281 66.66520951185126 26.499999999999996
    vertex 55.15475996761828 68.16520951185126 26.499999999999996
  endloop
endfacet
facet normal 0.0 0.0 1.0
  outer loop
    vertex 6.654759967618281 66.66520951185126 26.499999999999996
    vertex 5.154759967618281 68.16520951185126 26.499999999999996
    vertex 6.654759967618281 46.665209511851266 26.499999999999996
  endloop
endfacet
facet normal 0.0 0.0 1.0
  outer loop
    vertex 55.15475996761828 68.16520951185126 26.499999999999996
    vertex 6.654759967618281 66.66520951185126 26.499999999999996
    vertex 53.65475996761828 66.66520951185126 26.499999999999996
  endloop
endfacet
facet normal 0.0 0.0 1.0
  outer loop
    vertex 55.15475996761828 68.16520951185126 26.499999999999996
    vertex 53.65475996761828 66.66520951185126 26.499999999999996
    vertex 55.15475996761828 45.16520951185126 26.499999999999996
  endloop
endfacet
facet normal -0.0 -1.0 -0.0
  outer loop
    vertex 55.15475996761828 45.16520951185126 26.499999999999996
    vertex 5.154759967618281 45.16520951185126 0.0
    vertex 55.15475996761828 45.16520951185126 0.0
  endloop
endfacet
facet normal -0.0 -1.0 -0.0
  outer loop
    vertex 5.154759967618281 45.16520951185126 0.0
    vertex 55.15475996761828 45.16520951185126 26.499999999999996
    vertex 5.154759967618281 45.16520951185126 26.499999999999996
  endloop
endfacet
facet normal -1.0 0.0 0.0
  outer loop
    vertex 5.154759967618281 68.16520951185126 26.499999999999996
    vertex 5.154759967618281 45.16520951185126 0.0
    vertex 5.154759967618281 45.16520951185126 26.499999999999996
  endloop
endfacet
facet normal -1.0 0.0 0.0
  outer loop
    vertex 5.154759967618281 45.16520951185126 0.0
    vertex 5.154759967618281 68.16520951185126 26.499999999999996
    vertex 5.154759967618281 68.16520951185126 0.0
  endloop
endfacet
facet normal 0.0 0.0 -1.0
  outer loop
    vertex 55.15475996761828 68.16520951185126 0.0
    vertex 5.154759967618281 45.16520951185126 0.0
    vertex 5.154759967618281 68.16520951185126 0.0
  endloop
endfacet
facet normal 0.0 0.0 -1.0
  outer loop
    vertex 5.154759967618281 45.16520951185126 0.0
    vertex 55.15475996761828 68.16520951185126 0.0
    vertex 55.15475996761828 45.16520951185126 0.0
  endloop
endfacet
facet normal 0.0 0.0 1.0
  outer loop
    vertex 17.654759967618283 62.665209511851266 12.5
    vertex 15.654759967618284 66.66520951185126 12.5
    vertex 15.654759967618284 62.665209511851266 12.5
  endloop
endfacet
facet normal 0.0 0.0 1.0
  outer loop
    vertex 15.654759967618284 66.66520951185126 12.5
    vertex 17.654759967618283 62.665209511851266 12.5
    vertex 17.654759967618283 66.66520951185126 12.5
  endloop
endfacet
facet normal 0.0 -1.0 0.0
  outer loop
    vertex 53.65475996761828 62.665209511851266 9.5
    vertex 51.65475996761828 62.665209511851266 11.499999999999998
    vertex 15.654759967618284 62.665209511851266 9.5
  endloop
endfacet
facet normal 0.0 -1.0 0.0
  outer loop
    vertex 51.65475996761828 62.665209511851266 11.499999999999998
    vertex 53.65475996761828 62.665209511851266 9.5
    vertex 53.65475996761828 62.665209511851266 12.5
  endloop
endfacet
facet normal 0.0 -1.0 0.0
  outer loop
    vertex 51.65475996761828 62.665209511851266 11.499999999999998
    vertex 53.65475996761828 62.665209511851266 12.5
    vertex 51.65475996761828 62.665209511851266 12.5
  endloop
endfacet
facet normal 0.0 -1.0 0.0
  outer loop
    vertex 15.654759967618284 62.665209511851266 9.5
    vertex 17.654759967618283 62.665209511851266 11.499999999999998
    vertex 15.654759967618284 62.665209511851266 12.5
  endloop
endfacet
facet normal 0.0 -1.0 0.0
  outer loop
    vertex 17.654759967618283 62.665209511851266 11.499999999999998
    vertex 15.654759967618284 62.665209511851266 9.5
    vertex 51.65475996761828 62.665209511851266 11.499999999999998
  endloop
endfacet
facet normal 0.0 -1.0 0.0
  outer loop
    vertex 15.654759967618284 62.665209511851266 12.5
    vertex 17.654759967618283 62.665209511851266 11.499999999999998
    vertex 17.654759967618283 62.665209511851266 12.5
  endloop
endfacet
facet normal 0.0 0.0 1.0
  outer loop
    vertex 51.65475996761828 62.665209511851266 11.499999999999998
    vertex 17.654759967618283 66.66520951185126 11.499999999999998
    vertex 17.654759967618283 62.665209511851266 11.499999999999998
  endloop
endfacet
facet normal 0.0 0.0 1.0
  outer loop
    vertex 17.654759967618283 66.66520951185126 11.499999999999998
    vertex 51.65475996761828 62.665209511851266 11.499999999999998
    vertex 51.65475996761828 66.66520951185126 11.499999999999998
  endloop
endfacet
facet normal -0.0 -0.0 -1.0
  outer loop
    vertex 53.65475996761828 66.66520951185126 9.5
    vertex 15.654759967618284 62.665209511851266 9.5
    vertex 15.654759967618284 66.66520951185126 9.5
  endloop
endfacet
facet normal -0.0 -0.0 -1.0
  outer loop
    vertex 15.654759967618284 62.665209511851266 9.5
    vertex 53.65475996761828 66.66520951185126 9.5
    vertex 53.65475996761828 62.665209511851266 9.5
  endloop
endfacet
facet normal 1.0 0.0 0.0
  outer loop
    vertex 17.654759967618283 66.66520951185126 11.499999999999998
    vertex 17.654759967618283 62.665209511851266 12.5
    vertex 17.654759967618283 62.665209511851266 11.499999999999998
  endloop
endfacet
facet normal 1.0 0.0 0.0
  outer loop
    vertex 17.654759967618283 62.665209511851266 12.5
    vertex 17.654759967618283 66.66520951185126 11.499999999999998
    vertex 17.654759967618283 66.66520951185126 12.5
  endloop
endfacet
facet normal -1.0 -0.0 -0.0
  outer loop
    vertex 51.65475996761828 66.66520951185126 12.5
    vertex 51.65475996761828 62.665209511851266 11.499999999999998
    vertex 51.65475996761828 62.665209511851266 12.5
  endloop
endfacet
facet normal -1.0 -0.0 -0.0
  outer loop
    vertex 51.65475996761828 62.665209511851266 11.499999999999998
    vertex 51.65475996761828 66.66520951185126 12.5
    vertex 51.65475996761828 66.66520951185126 11.499999999999998
  endloop
endfacet
facet normal -1.0 0.0 0.0
  outer loop
    vertex 15.654759967618284 66.66520951185126 12.5
    vertex 15.654759967618284 62.665209511851266 9.5
    vertex 15.654759967618284 62.665209511851266 12.5
  endloop
endfacet
facet normal -1.0 0.0 0.0
  outer loop
    vertex 15.654759967618284 62.665209511851266 9.5
    vertex 15.654759967618284 66.66520951185126 12.5
    vertex 15.654759967618284 66.66520951185126 9.5
  endloop
endfacet
facet normal 0.0 0.0 1.0
  outer loop
    vertex 53.65475996761828 62.665209511851266 12.5
    vertex 51.65475996761828 66.66520951185126 12.5
    vertex 51.65475996761828 62.665209511851266 12.5
  endloop
endfacet
facet normal 0.0 0.0 1.0
  outer loop
    vertex 51.65475996761828 66.66520951185126 12.5
    vertex 53.65475996761828 62.665209511851266 12.5
    vertex 53.65475996761828 66.66520951185126 12.5
  endloop
endfacet
facet normal 0.0 1.0 0.0
  outer loop
    vertex 15.654759967618284 66.66520951185126 9.5
    vertex 17.654759967618283 66.66520951185126 11.499999999999998
    vertex 53.65475996761828 66.66520951185126 9.5
  endloop
endfacet
facet normal 0.0 1.0 0.0
  outer loop
    vertex 17.654759967618283 66.66520951185126 11.499999999999998
    vertex 15.654759967618284 66.66520951185126 9.5
    vertex 15.654759967618284 66.66520951185126 12.5
  endloop
endfacet
facet normal 0.0 1.0 0.0
  outer loop
    vertex 17.654759967618283 66.66520951185126 11.499999999999998
    vertex 15.654759967618284 66.66520951185126 12.5
    vertex 17.654759967618283 66.66520951185126 12.5
  endloop
endfacet
facet normal 0.0 1.0 0.0
  outer loop
    vertex 53.65475996761828 66.66520951185126 9.5
    vertex 51.65475996761828 66.66520951185126 11.499999999999998
    vertex 53.65475996761828 66.66520951185126 12.5
  endloop
endfacet
facet normal 0.0 1.0 0.0
  outer loop
    vertex 51.65475996761828 66.66520951185126 11.499999999999998
    vertex 53.65475996761828 66.66520951185126 9.5
    vertex 17.654759967618283 66.66520951185126 11.499999999999998
  endloop
endfacet
facet normal 0.0 1.0 0.0
  outer loop
    vertex 53.65475996761828 66.66520951185126 12.5
    vertex 51.65475996761828 66.66520951185126 11.499999999999998
    vertex 51.65475996761828 66.66520951185126 12.5
  endloop
endfacet
facet normal 1.0 0.0 0.0
  outer loop
    vertex 53.65475996761828 66.66520951185126 9.5
    vertex 53.65475996761828 62.665209511851266 12.5
    vertex 53.65475996761828 62.665209511851266 9.5
  endloop
endfacet
facet normal 1.0 0.0 0.0
  outer loop
    vertex 53.65475996761828 62.665209511851266 12.5
    vertex 53.65475996761828 66.66520951185126 9.5
    vertex 53.65475996761828 66.66520951185126 12.5
  endloop
endfacet
facet normal 0.0 0.0 1.0
  outer loop
    vertex 17.654759967618283 46.665209511851266 12.499999999999998
    vertex 15.654759967618284 50.66520951185126 12.499999999999998
    vertex 15.654759967618284 46.665209511851266 12.499999999999998
  endloop
endfacet
facet normal 0.0 0.0 1.0
  outer loop
    vertex 15.654759967618284 50.66520951185126 12.499999999999998
    vertex 17.654759967618283 46.665209511851266 12.499999999999998
    vertex 17.654759967618283 50.66520951185126 12.499999999999998
  endloop
endfacet
facet normal 0.0 -1.0 0.0
  outer loop
    vertex 53.65475996761828 46.665209511851266 9.499999999999998
    vertex 51.65475996761828 46.665209511851266 11.499999999999996
    vertex 15.654759967618284 46.665209511851266 9.499999999999998
  endloop
endfacet
facet normal 0.0 -1.0 0.0
  outer loop
    vertex 51.65475996761828 46.665209511851266 11.499999999999996
    vertex 53.65475996761828 46.665209511851266 9.499999999999998
    vertex 53.65475996761828 46.665209511851266 12.499999999999998
  endloop
endfacet
facet normal 0.0 -1.0 0.0
  outer loop
    vertex 51.65475996761828 46.665209511851266 11.499999999999996
    vertex 53.65475996761828 46.665209511851266 12.499999999999998
    vertex 51.65475996761828 46.665209511851266 12.499999999999998
  endloop
endfacet
facet normal 0.0 -1.0 0.0
  outer loop
    vertex 15.654759967618284 46.665209511851266 9.499999999999998
    vertex 17.654759967618283 46.665209511851266 11.499999999999996
    vertex 15.654759967618284 46.665209511851266 12.499999999999998
  endloop
endfacet
facet normal 0.0 -1.0 0.0
  outer loop
    vertex 17.654759967618283 46.665209511851266 11.499999999999996
    vertex 15.654759967618284 46.665209511851266 9.499999999999998
    vertex 51.65475996761828 46.665209511851266 11.499999999999996
  endloop
endfacet
facet normal 0.0 -1.0 0.0
  outer loop
    vertex 15.654759967618284 46.665209511851266 12.499999999999998
    vertex 17.654759967618283 46.665209511851266 11.499999999999996
    vertex 17.654759967618283 46.665209511851266 12.499999999999998
  endloop
endfacet
facet normal 0.0 0.0 1.0
  outer loop
    vertex 51.65475996761828 46.665209511851266 11.499999999999996
    vertex 17.654759967618283 50.66520951185126 11.499999999999996
    vertex 17.654759967618283 46.665209511851266 11.499999999999996
  endloop
endfacet
facet normal 0.0 0.0 1.0
  outer loop
    vertex 17.654759967618283 50.66520951185126 11.499999999999996
    vertex 51.65475996761828 46.665209511851266 11.499999999999996
    vertex 51.65475996761828 50.66520951185126 11.499999999999996
  endloop
endfacet
facet normal -0.0 -0.0 -1.0
  outer loop
    vertex 53.65475996761828 50.66520951185126 9.499999999999998
    vertex 15.654759967618284 46.665209511851266 9.499999999999998
    vertex 15.654759967618284 50.66520951185126 9.499999999999998
  endloop
endfacet
facet normal -0.0 -0.0 -1.0
  outer loop
    vertex 15.654759967618284 46.665209511851266 9.499999999999998
    vertex 53.65475996761828 50.66520951185126 9.499999999999998
    vertex 53.65475996761828 46.665209511851266 9.499999999999998
  endloop
endfacet
facet normal 1.0 0.0 0.0
  outer loop
    vertex 17.654759967618283 50.66520951185126 11.499999999999996
    vertex 17.654759967618283 46.665209511851266 12.499999999999998
    vertex 17.654759967618283 46.665209511851266 11.499999999999996
  endloop
endfacet
facet normal 1.0 0.0 0.0
  outer loop
    vertex 17.654759967618283 46.665209511851266 12.499999999999998
    vertex 17.654759967618283 50.66520951185126 11.499999999999996
    vertex 17.654759967618283 50.66520951185126 12.499999999999998
  endloop
endfacet
facet normal -1.0 -0.0 -0.0
  outer loop
    vertex 51.65475996761828 50.66520951185126 12.499999999999998
    vertex 51.65475996761828 46.665209511851266 11.499999999999996
    vertex 51.65475996761828 46.665209511851266 12.499999999999998
  endloop
endfacet
facet normal -1.0 -0.0 -0.0
  outer loop
    vertex 51.65475996761828 46.665209511851266 11.499999999999996
    vertex 51.65475996761828 50.66520951185126 12.499999999999998
    vertex 51.65475996761828 50.66520951185126 11.499999999999996
  endloop
endfacet
facet normal -1.0 0.0 0.0
  outer loop
    vertex 15.654759967618284 50.66520951185126 12.499999999999998
    vertex 15.654759967618284 46.665209511851266 9.499999999999998
    vertex 15.654759967618284 46.665209511851266 12.499999999999998
  endloop
endfacet
facet normal -1.0 0.0 0.0
  outer loop
    vertex 15.654759967618284 46.665209511851266 9.499999999999998
    vertex 15.654759967618284 50.66520951185126 12.499999999999998
    vertex 15.654759967618284 50.66520951185126 9.499999999999998
  endloop
endfacet
facet normal 0.0 0.0 1.0
  outer loop
    vertex 53.65475996761828 46.665209511851266 12.499999999999998
    vertex 51.65475996761828 50.66520951185126 12.499999999999998
    vertex 51.65475996761828 46.665209511851266 12.499999999999998
  endloop
endfacet
facet normal 0.0 0.0 1.0
  outer loop
    vertex 51.65475996761828 50.66520951185126 12.499999999999998
    vertex 53.65475996761828 46.665209511851266 12.499999999999998
    vertex 53.65475996761828 50.66520951185126 12.499999999999998
  endloop
endfacet
facet normal 0.0 1.0 0.0
  outer loop
    vertex 15.654759967618284 50.66520951185126 9.499999999999998
    vertex 17.654759967618283 50.66520951185126 11.499999999999996
    vertex 53.65475996761828 50.66520951185126 9.499999999999998
  endloop
endfacet
facet normal 0.0 1.0 0.0
  outer loop
    vertex 17.654759967618283 50.66520951185126 11.499999999999996
    vertex 15.654759967618284 50.66520951185126 9.499999999999998
    vertex 15.654759967618284 50.66520951185126 12.499999999999998
  endloop
endfacet
facet normal 0.0 1.0 0.0
  outer loop
    vertex 17.654759967618283 50.66520951185126 11.499999999999996
    vertex 15.654759967618284 50.66520951185126 12.499999999999998
    vertex 17.654759967618283 50.66520951185126 12.499999999999998
  endloop
endfacet
facet normal 0.0 1.0 0.0
  outer loop
    vertex 53.65475996761828 50.66520951185126 9.499999999999998
    vertex 51.65475996761828 50.66520951185126 11.499999999999996
    vertex 53.65475996761828 50.66520951185126 12.499999999999998
  endloop
endfacet
facet normal 0.0 1.0 0.0
  outer loop
    vertex 51.65475996761828 50.66520951185126 11.499999999999996
    vertex 53.65475996761828 50.66520951185126 9.499999999999998
    vertex 17.654759967618283 50.66520951185126 11.499999999999996
  endloop
endfacet
facet normal 0.0 1.0 0.0
  outer loop
    vertex 53.65475996761828 50.66520951185126 12.499999999999998
    vertex 51.65475996761828 50.66520951185126 11.499999999999996
    vertex 51.65475996761828 50.66520951185126 12.499999999999998
  endloop
endfacet
facet normal 1.0 0.0 0.0
  outer loop
    vertex 53.65475996761828 50.66520951185126 9.499999999999998
    vertex 53.65475996761828 46.665209511851266 12.499999999999998
    vertex 53.65475996761828 46.665209511851266 9.499999999999998
  endloop
endfacet
facet normal 1.0 0.0 0.0
  outer loop
    vertex 53.65475996761828 46.665209511851266 12.499999999999998
    vertex 53.65475996761828 50.66520951185126 9.499999999999998
    vertex 53.65475996761828 50.66520951185126 12.499999999999998
  endloop
endfacet
endsolid LoRaBoxv2
