solid LoRaBox
facet normal 0.0 0.0 -1.0
  outer loop
    vertex 48.0 23.000000000000004 14.500000000000002
    vertex 13.999999999999996 21.000000000000004 14.500000000000002
    vertex 13.999999999999996 23.000000000000004 14.500000000000002
  endloop
endfacet
facet normal 0.0 0.0 -1.0
  outer loop
    vertex 13.999999999999996 21.000000000000004 14.500000000000002
    vertex 48.0 23.000000000000004 14.500000000000002
    vertex 48.0 21.000000000000004 14.500000000000002
  endloop
endfacet
facet normal 0.0 0.0 1.0
  outer loop
    vertex 48.0 21.000000000000004 16.5
    vertex 13.999999999999996 23.000000000000004 16.5
    vertex 13.999999999999996 21.000000000000004 16.5
  endloop
endfacet
facet normal 0.0 0.0 1.0
  outer loop
    vertex 13.999999999999996 23.000000000000004 16.5
    vertex 48.0 21.000000000000004 16.5
    vertex 48.0 23.000000000000004 16.5
  endloop
endfacet
facet normal -1.0 -0.0 -0.0
  outer loop
    vertex 13.999999999999996 23.000000000000004 16.5
    vertex 13.999999999999996 21.000000000000004 14.500000000000002
    vertex 13.999999999999996 21.000000000000004 16.5
  endloop
endfacet
facet normal -1.0 -0.0 -0.0
  outer loop
    vertex 13.999999999999996 21.000000000000004 14.500000000000002
    vertex 13.999999999999996 23.000000000000004 16.5
    vertex 13.999999999999996 23.000000000000004 14.500000000000002
  endloop
endfacet
facet normal 0.0 -1.0 0.0
  outer loop
    vertex 48.0 21.000000000000004 16.5
    vertex 13.999999999999996 21.000000000000004 14.500000000000002
    vertex 48.0 21.000000000000004 14.500000000000002
  endloop
endfacet
facet normal 0.0 -1.0 0.0
  outer loop
    vertex 13.999999999999996 21.000000000000004 14.500000000000002
    vertex 48.0 21.000000000000004 16.5
    vertex 13.999999999999996 21.000000000000004 16.5
  endloop
endfacet
facet normal 1.0 0.0 0.0
  outer loop
    vertex 48.0 23.000000000000004 14.500000000000002
    vertex 48.0 21.000000000000004 16.5
    vertex 48.0 21.000000000000004 14.500000000000002
  endloop
endfacet
facet normal 1.0 0.0 0.0
  outer loop
    vertex 48.0 21.000000000000004 16.5
    vertex 48.0 23.000000000000004 14.500000000000002
    vertex 48.0 23.000000000000004 16.5
  endloop
endfacet
facet normal 0.0 1.0 0.0
  outer loop
    vertex 13.999999999999996 23.000000000000004 16.5
    vertex 48.0 23.000000000000004 14.500000000000002
    vertex 13.999999999999996 23.000000000000004 14.500000000000002
  endloop
endfacet
facet normal 0.0 1.0 0.0
  outer loop
    vertex 48.0 23.000000000000004 14.500000000000002
    vertex 13.999999999999996 23.000000000000004 16.5
    vertex 48.0 23.000000000000004 16.5
  endloop
endfacet
facet normal -1.0 1.0367523832896684e-17 0.0
  outer loop
    vertex 13.999999999999996 3.9999999999999996 16.5
    vertex 13.999999999999996 1.9999999999999996 14.500000000000002
    vertex 13.999999999999996 1.9999999999999996 16.5
  endloop
endfacet
facet normal -1.0 1.0367523832896684e-17 0.0
  outer loop
    vertex 13.999999999999996 1.9999999999999996 14.500000000000002
    vertex 13.999999999999996 3.9999999999999996 16.5
    vertex 13.999999999999996 3.9999999999999996 14.500000000000002
  endloop
endfacet
facet normal -6.014752733429057e-50 -5.80153258422608e-33 -1.0
  outer loop
    vertex 48.0 3.999999999999999 14.500000000000002
    vertex 13.999999999999996 1.9999999999999996 14.500000000000002
    vertex 13.999999999999996 3.9999999999999996 14.500000000000002
  endloop
endfacet
facet normal -6.014752733429057e-50 -5.80153258422608e-33 -1.0
  outer loop
    vertex 13.999999999999996 1.9999999999999996 14.500000000000002
    vertex 48.0 3.999999999999999 14.500000000000002
    vertex 48.0 1.9999999999999991 14.500000000000002
  endloop
endfacet
facet normal 6.014752733429057e-50 5.80153258422608e-33 1.0
  outer loop
    vertex 48.0 1.9999999999999991 16.5
    vertex 13.999999999999996 3.9999999999999996 16.5
    vertex 13.999999999999996 1.9999999999999996 16.5
  endloop
endfacet
facet normal 6.014752733429057e-50 5.80153258422608e-33 1.0
  outer loop
    vertex 13.999999999999996 3.9999999999999996 16.5
    vertex 48.0 1.9999999999999991 16.5
    vertex 48.0 3.999999999999999 16.5
  endloop
endfacet
facet normal 1.0 -1.0367523832896684e-17 0.0
  outer loop
    vertex 48.0 3.999999999999999 14.500000000000002
    vertex 48.0 1.9999999999999991 16.5
    vertex 48.0 1.9999999999999991 14.500000000000002
  endloop
endfacet
facet normal 1.0 -1.0367523832896684e-17 0.0
  outer loop
    vertex 48.0 1.9999999999999991 16.5
    vertex 48.0 3.999999999999999 14.500000000000002
    vertex 48.0 3.999999999999999 16.5
  endloop
endfacet
facet normal 1.0367523832896684e-17 1.0 -5.80153258422608e-33
  outer loop
    vertex 13.999999999999996 3.9999999999999996 16.5
    vertex 48.0 3.999999999999999 14.500000000000002
    vertex 13.999999999999996 3.9999999999999996 14.500000000000002
  endloop
endfacet
facet normal 1.0367523832896684e-17 1.0 -5.80153258422608e-33
  outer loop
    vertex 48.0 3.999999999999999 14.500000000000002
    vertex 13.999999999999996 3.9999999999999996 16.5
    vertex 48.0 3.999999999999999 16.5
  endloop
endfacet
facet normal -1.0367523832896684e-17 -1.0 5.80153258422608e-33
  outer loop
    vertex 48.0 1.9999999999999991 16.5
    vertex 13.999999999999996 1.9999999999999996 14.500000000000002
    vertex 48.0 1.9999999999999991 14.500000000000002
  endloop
endfacet
facet normal -1.0367523832896684e-17 -1.0 5.80153258422608e-33
  outer loop
    vertex 13.999999999999996 1.9999999999999996 14.500000000000002
    vertex 48.0 1.9999999999999991 16.5
    vertex 13.999999999999996 1.9999999999999996 16.5
  endloop
endfacet
facet normal 0.0 0.0 1.0
  outer loop
    vertex 48.0 1.9999999999999991 1.9999999999999998
    vertex 1.9999999999999998 23.000000000000004 1.9999999999999998
    vertex 1.9999999999999998 1.9999999999999998 1.9999999999999998
  endloop
endfacet
facet normal 0.0 0.0 1.0
  outer loop
    vertex 1.9999999999999998 23.000000000000004 1.9999999999999998
    vertex 48.0 1.9999999999999991 1.9999999999999998
    vertex 48.0 23.000000000000004 1.9999999999999998
  endloop
endfacet
facet normal 0.0 1.0 0.0
  outer loop
    vertex 0.0 25.000000000000004 27.0
    vertex 50.0 25.000000000000004 0.0
    vertex 0.0 25.000000000000004 0.0
  endloop
endfacet
facet normal 0.0 1.0 0.0
  outer loop
    vertex 50.0 25.000000000000004 0.0
    vertex 0.0 25.000000000000004 27.0
    vertex 50.0 25.000000000000004 27.0
  endloop
endfacet
facet normal -0.0 -1.0 -0.0
  outer loop
    vertex 50.0 0.0 27.0
    vertex 0.0 0.0 0.0
    vertex 50.0 0.0 0.0
  endloop
endfacet
facet normal -0.0 -1.0 -0.0
  outer loop
    vertex 0.0 0.0 0.0
    vertex 50.0 0.0 27.0
    vertex 0.0 0.0 27.0
  endloop
endfacet
facet normal -1.0 0.0 0.0
  outer loop
    vertex 0.0 25.000000000000004 27.0
    vertex 0.0 0.0 0.0
    vertex 0.0 0.0 27.0
  endloop
endfacet
facet normal -1.0 0.0 0.0
  outer loop
    vertex 0.0 0.0 0.0
    vertex 0.0 25.000000000000004 27.0
    vertex 0.0 25.000000000000004 0.0
  endloop
endfacet
facet normal 0.0 0.0 -1.0
  outer loop
    vertex 50.0 25.000000000000004 0.0
    vertex 0.0 0.0 0.0
    vertex 0.0 25.000000000000004 0.0
  endloop
endfacet
facet normal 0.0 0.0 -1.0
  outer loop
    vertex 0.0 0.0 0.0
    vertex 50.0 25.000000000000004 0.0
    vertex 50.0 0.0 0.0
  endloop
endfacet
facet normal 0.0 1.0 0.0
  outer loop
    vertex 48.0 6.999999999999998 9.0
    vertex 50.00000000000002 6.999999999999998 7.0
    vertex 48.0 6.999999999999998 7.0
  endloop
endfacet
facet normal 0.0 1.0 0.0
  outer loop
    vertex 50.00000000000002 6.999999999999998 7.0
    vertex 48.0 6.999999999999998 9.0
    vertex 50.00000000000002 6.999999999999998 9.0
  endloop
endfacet
facet normal 0.0 0.0 1.0
  outer loop
    vertex 50.00000000000002 6.999999999999998 7.0
    vertex 48.0 17.929999999999996 7.0
    vertex 48.0 6.999999999999998 7.0
  endloop
endfacet
facet normal 0.0 0.0 1.0
  outer loop
    vertex 48.0 17.929999999999996 7.0
    vertex 50.00000000000002 6.999999999999998 7.0
    vertex 50.00000000000002 17.929999999999996 7.0
  endloop
endfacet
facet normal 0.0 -1.0 0.0
  outer loop
    vertex 50.00000000000002 17.929999999999996 9.0
    vertex 48.0 17.929999999999996 7.0
    vertex 50.00000000000002 17.929999999999996 7.0
  endloop
endfacet
facet normal 0.0 -1.0 0.0
  outer loop
    vertex 48.0 17.929999999999996 7.0
    vertex 50.00000000000002 17.929999999999996 9.0
    vertex 48.0 17.929999999999996 9.0
  endloop
endfacet
facet normal 0.0 0.0 -1.0
  outer loop
    vertex 50.00000000000002 17.929999999999996 9.0
    vertex 48.0 6.999999999999998 9.0
    vertex 48.0 17.929999999999996 9.0
  endloop
endfacet
facet normal 0.0 0.0 -1.0
  outer loop
    vertex 48.0 6.999999999999998 9.0
    vertex 50.00000000000002 17.929999999999996 9.0
    vertex 50.00000000000002 6.999999999999998 9.0
  endloop
endfacet
facet normal 1.0 9.55138495305177e-18 4.324624659887851e-16
  outer loop
    vertex 50.0 0.0 0.0
    vertex 50.00000000000002 6.999999999999998 7.0
    vertex 50.0 0.0 27.0
  endloop
endfacet
facet normal 1.0 9.55138495305177e-18 4.324624659887851e-16
  outer loop
    vertex 50.00000000000002 6.999999999999998 7.0
    vertex 50.0 0.0 0.0
    vertex 50.0 25.000000000000004 0.0
  endloop
endfacet
facet normal 1.0 9.55138495305177e-18 4.324624659887851e-16
  outer loop
    vertex 50.00000000000002 6.999999999999998 7.0
    vertex 50.0 25.000000000000004 0.0
    vertex 50.00000000000002 17.929999999999996 7.0
  endloop
endfacet
facet normal 1.0 9.55138495305177e-18 4.324624659887851e-16
  outer loop
    vertex 50.00000000000002 17.929999999999996 7.0
    vertex 50.0 25.000000000000004 0.0
    vertex 50.00000000000002 17.929999999999996 9.0
  endloop
endfacet
facet normal 1.0 9.55138495305177e-18 4.324624659887851e-16
  outer loop
    vertex 50.0 0.0 27.0
    vertex 50.00000000000002 6.999999999999998 9.0
    vertex 50.0 25.000000000000004 27.0
  endloop
endfacet
facet normal 1.0 9.55138495305177e-18 4.324624659887851e-16
  outer loop
    vertex 50.00000000000002 6.999999999999998 9.0
    vertex 50.0 0.0 27.0
    vertex 50.00000000000002 6.999999999999998 7.0
  endloop
endfacet
facet normal 1.0 9.55138495305177e-18 4.324624659887851e-16
  outer loop
    vertex 50.0 25.000000000000004 27.0
    vertex 50.00000000000002 6.999999999999998 9.0
    vertex 50.00000000000002 17.929999999999996 9.0
  endloop
endfacet
facet normal 1.0 9.55138495305177e-18 4.324624659887851e-16
  outer loop
    vertex 50.0 25.000000000000004 27.0
    vertex 50.00000000000002 17.929999999999996 9.0
    vertex 50.0 25.000000000000004 0.0
  endloop
endfacet
facet normal 0.0 -1.0 0.0
  outer loop
    vertex 48.0 23.000000000000004 27.0
    vertex 1.9999999999999998 23.000000000000004 1.9999999999999998
    vertex 48.0 23.000000000000004 1.9999999999999998
  endloop
endfacet
facet normal 0.0 -1.0 0.0
  outer loop
    vertex 1.9999999999999998 23.000000000000004 1.9999999999999998
    vertex 48.0 23.000000000000004 27.0
    vertex 1.9999999999999998 23.000000000000004 27.0
  endloop
endfacet
facet normal 0.0 0.0 1.0
  outer loop
    vertex 0.0 0.0 27.0
    vertex 1.9999999999999998 1.9999999999999998 27.0
    vertex 0.0 25.000000000000004 27.0
  endloop
endfacet
facet normal 0.0 0.0 1.0
  outer loop
    vertex 1.9999999999999998 1.9999999999999998 27.0
    vertex 0.0 0.0 27.0
    vertex 50.0 0.0 27.0
  endloop
endfacet
facet normal 0.0 0.0 1.0
  outer loop
    vertex 1.9999999999999998 1.9999999999999998 27.0
    vertex 50.0 0.0 27.0
    vertex 48.0 1.9999999999999991 27.0
  endloop
endfacet
facet normal 0.0 0.0 1.0
  outer loop
    vertex 48.0 1.9999999999999991 27.0
    vertex 50.0 0.0 27.0
    vertex 48.0 23.000000000000004 27.0
  endloop
endfacet
facet normal 0.0 0.0 1.0
  outer loop
    vertex 0.0 25.000000000000004 27.0
    vertex 1.9999999999999998 23.000000000000004 27.0
    vertex 50.0 25.000000000000004 27.0
  endloop
endfacet
facet normal 0.0 0.0 1.0
  outer loop
    vertex 1.9999999999999998 23.000000000000004 27.0
    vertex 0.0 25.000000000000004 27.0
    vertex 1.9999999999999998 1.9999999999999998 27.0
  endloop
endfacet
facet normal 0.0 0.0 1.0
  outer loop
    vertex 50.0 25.000000000000004 27.0
    vertex 1.9999999999999998 23.000000000000004 27.0
    vertex 48.0 23.000000000000004 27.0
  endloop
endfacet
facet normal 0.0 0.0 1.0
  outer loop
    vertex 50.0 25.000000000000004 27.0
    vertex 48.0 23.000000000000004 27.0
    vertex 50.0 0.0 27.0
  endloop
endfacet
facet normal -1.0 -0.0 -0.0
  outer loop
    vertex 48.0 1.9999999999999991 27.0
    vertex 48.0 6.999999999999998 9.0
    vertex 48.0 1.9999999999999991 1.9999999999999998
  endloop
endfacet
facet normal -1.0 -0.0 -0.0
  outer loop
    vertex 48.0 6.999999999999998 9.0
    vertex 48.0 1.9999999999999991 27.0
    vertex 48.0 23.000000000000004 27.0
  endloop
endfacet
facet normal -1.0 -0.0 -0.0
  outer loop
    vertex 48.0 6.999999999999998 9.0
    vertex 48.0 23.000000000000004 27.0
    vertex 48.0 17.929999999999996 9.0
  endloop
endfacet
facet normal -1.0 -0.0 -0.0
  outer loop
    vertex 48.0 17.929999999999996 9.0
    vertex 48.0 23.000000000000004 27.0
    vertex 48.0 17.929999999999996 7.0
  endloop
endfacet
facet normal -1.0 -0.0 -0.0
  outer loop
    vertex 48.0 1.9999999999999991 1.9999999999999998
    vertex 48.0 6.999999999999998 7.0
    vertex 48.0 23.000000000000004 1.9999999999999998
  endloop
endfacet
facet normal -1.0 -0.0 -0.0
  outer loop
    vertex 48.0 6.999999999999998 7.0
    vertex 48.0 1.9999999999999991 1.9999999999999998
    vertex 48.0 6.999999999999998 9.0
  endloop
endfacet
facet normal -1.0 -0.0 -0.0
  outer loop
    vertex 48.0 23.000000000000004 1.9999999999999998
    vertex 48.0 6.999999999999998 7.0
    vertex 48.0 17.929999999999996 7.0
  endloop
endfacet
facet normal -1.0 -0.0 -0.0
  outer loop
    vertex 48.0 23.000000000000004 1.9999999999999998
    vertex 48.0 17.929999999999996 7.0
    vertex 48.0 23.000000000000004 27.0
  endloop
endfacet
facet normal 1.0 0.0 0.0
  outer loop
    vertex 1.9999999999999998 23.000000000000004 1.9999999999999998
    vertex 1.9999999999999998 1.9999999999999998 27.0
    vertex 1.9999999999999998 1.9999999999999998 1.9999999999999998
  endloop
endfacet
facet normal 1.0 0.0 0.0
  outer loop
    vertex 1.9999999999999998 1.9999999999999998 27.0
    vertex 1.9999999999999998 23.000000000000004 1.9999999999999998
    vertex 1.9999999999999998 23.000000000000004 27.0
  endloop
endfacet
facet normal 1.5325904796455966e-17 1.0 0.0
  outer loop
    vertex 1.9999999999999998 1.9999999999999998 27.0
    vertex 48.0 1.9999999999999991 1.9999999999999998
    vertex 1.9999999999999998 1.9999999999999998 1.9999999999999998
  endloop
endfacet
facet normal 1.5325904796455966e-17 1.0 0.0
  outer loop
    vertex 48.0 1.9999999999999991 1.9999999999999998
    vertex 1.9999999999999998 1.9999999999999998 27.0
    vertex 48.0 1.9999999999999991 27.0
  endloop
endfacet
endsolid LoRaBox
